<svg xmlns="http://www.w3.org/2000/svg" width="200" height="200" viewBox="0 0 200 200">
  <defs>
    <linearGradient id="bg" x1="0%" y1="0%" x2="100%" y2="100%">
      <stop offset="0%" stop-color="#e53935"/>
      <stop offset="100%" stop-color="#b71c1c"/>
    </linearGradient>
    <linearGradient id="shine" x1="0%" y1="0%" x2="0%" y2="100%">
      <stop offset="0%" stop-color="rgba(255,255,255,0.15)"/>
      <stop offset="100%" stop-color="rgba(255,255,255,0)"/>
    </linearGradient>
  </defs>
  <rect width="200" height="200" rx="16" fill="url(#bg)"/>
  <rect width="200" height="100" rx="16" fill="url(#shine)"/>
  <g transform="translate(50,5) scale(1)">
    <path d="M35 40 Q35 25 50 25 Q65 25 65 40 L65 45 L62 45 L62 65 Q62 70 57 70 L55 70 L55 45 L65 45 M35 40 L35 45 L38 45 L38 65 Q38 70 43 70 L45 70 L45 45 L35 45" fill="none" stroke="white" stroke-width="2.5"/>
  </g>
  <text x="100" y="130" text-anchor="middle" font-family="Segoe UI, Arial, sans-serif" font-size="17" font-weight="700" fill="white">Diadema P9</text>

  <rect x="50" y="158" width="100" height="22" rx="11" fill="#78909c" opacity="0.85"/>
  <text x="100" y="173" text-anchor="middle" font-family="Segoe UI, Arial, sans-serif" font-size="11" font-weight="600" fill="white">Genérico</text>
</svg>