<svg xmlns="http://www.w3.org/2000/svg" width="200" height="200" viewBox="0 0 200 200">
  <defs>
    <linearGradient id="bg" x1="0%" y1="0%" x2="100%" y2="100%">
      <stop offset="0%" stop-color="#1a73e8"/>
      <stop offset="100%" stop-color="#0d47a1"/>
    </linearGradient>
    <linearGradient id="shine" x1="0%" y1="0%" x2="0%" y2="100%">
      <stop offset="0%" stop-color="rgba(255,255,255,0.15)"/>
      <stop offset="100%" stop-color="rgba(255,255,255,0)"/>
    </linearGradient>
  </defs>
  <rect width="200" height="200" rx="16" fill="url(#bg)"/>
  <rect width="200" height="100" rx="16" fill="url(#shine)"/>
  <g transform="translate(50,5) scale(1)">
    <path d="M50 18 L56 18 L56 24 L62 24 L62 72 Q62 78 56 78 L44 78 Q38 78 38 72 L38 24 L44 24 L44 18 Z" fill="none" stroke="white" stroke-width="2.5"/><path d="M50 40 L50 62 M42 51 L58 51" stroke="white" stroke-width="3" stroke-linecap="round"/>
  </g>
  <text x="100" y="130" text-anchor="middle" font-family="Segoe UI, Arial, sans-serif" font-size="17" font-weight="700" fill="white">Cargador Xiaomi</text>
<text x="100" y="152" text-anchor="middle" font-family="Segoe UI, Arial, sans-serif" font-size="17" font-weight="700" fill="white">67W</text>

  <rect x="50" y="180" width="100" height="22" rx="11" fill="#ff6700" opacity="0.85"/>
  <text x="100" y="195" text-anchor="middle" font-family="Segoe UI, Arial, sans-serif" font-size="11" font-weight="600" fill="white">Xiaomi</text>
</svg>